<mxfile host="app.diagrams.net" modified="2023-07-04T03:01:18.613Z" agent="Mozilla/5.0 (Windows NT 10.0; Win64; x64) AppleWebKit/537.36 (KHTML, like Gecko) Chrome/114.0.0.0 Safari/537.36" etag="WrE9q_xLXOo7qzH1hWA1" version="21.5.2" type="github" pages="3">
  <diagram name="Page-1" id="Z01lcAtdFGZsN9NSfjrn">
    <mxGraphModel dx="1900" dy="549" grid="1" gridSize="10" guides="1" tooltips="1" connect="1" arrows="1" fold="1" page="1" pageScale="1" pageWidth="850" pageHeight="1100" math="0" shadow="0">
      <root>
        <mxCell id="0" />
        <mxCell id="1" parent="0" />
        <mxCell id="IrGBv9M6sCpECKAUH6eh-18" style="edgeStyle=orthogonalEdgeStyle;rounded=0;orthogonalLoop=1;jettySize=auto;html=1;" parent="1" source="IrGBv9M6sCpECKAUH6eh-3" target="IrGBv9M6sCpECKAUH6eh-4" edge="1">
          <mxGeometry relative="1" as="geometry" />
        </mxCell>
        <mxCell id="IrGBv9M6sCpECKAUH6eh-19" style="edgeStyle=orthogonalEdgeStyle;rounded=0;orthogonalLoop=1;jettySize=auto;html=1;entryX=0;entryY=0.5;entryDx=0;entryDy=0;" parent="1" source="IrGBv9M6sCpECKAUH6eh-3" target="IrGBv9M6sCpECKAUH6eh-15" edge="1">
          <mxGeometry relative="1" as="geometry" />
        </mxCell>
        <mxCell id="IrGBv9M6sCpECKAUH6eh-23" style="edgeStyle=orthogonalEdgeStyle;rounded=0;orthogonalLoop=1;jettySize=auto;html=1;" parent="1" source="IrGBv9M6sCpECKAUH6eh-3" edge="1">
          <mxGeometry relative="1" as="geometry">
            <mxPoint x="160" y="170" as="targetPoint" />
            <Array as="points">
              <mxPoint x="161" y="310" />
            </Array>
          </mxGeometry>
        </mxCell>
        <mxCell id="nARi_2VkK2IOHc93lKq7-6" style="edgeStyle=orthogonalEdgeStyle;rounded=0;orthogonalLoop=1;jettySize=auto;html=1;entryX=1;entryY=0.5;entryDx=0;entryDy=0;" parent="1" source="IrGBv9M6sCpECKAUH6eh-3" target="IrGBv9M6sCpECKAUH6eh-14" edge="1">
          <mxGeometry relative="1" as="geometry" />
        </mxCell>
        <mxCell id="wpN72CYwRbaIJRPYHv_L-2" style="edgeStyle=orthogonalEdgeStyle;rounded=0;orthogonalLoop=1;jettySize=auto;html=1;entryX=1;entryY=0.5;entryDx=0;entryDy=0;" parent="1" source="IrGBv9M6sCpECKAUH6eh-3" target="wpN72CYwRbaIJRPYHv_L-1" edge="1">
          <mxGeometry relative="1" as="geometry" />
        </mxCell>
        <mxCell id="IrGBv9M6sCpECKAUH6eh-3" value="Staff" style="shape=umlActor;html=1;verticalLabelPosition=bottom;verticalAlign=top;align=center;fontSize=14;" parent="1" vertex="1">
          <mxGeometry x="70" y="280" width="30" height="60" as="geometry" />
        </mxCell>
        <mxCell id="IrGBv9M6sCpECKAUH6eh-11" style="edgeStyle=orthogonalEdgeStyle;rounded=0;orthogonalLoop=1;jettySize=auto;html=1;" parent="1" source="IrGBv9M6sCpECKAUH6eh-4" target="IrGBv9M6sCpECKAUH6eh-7" edge="1">
          <mxGeometry relative="1" as="geometry" />
        </mxCell>
        <mxCell id="IrGBv9M6sCpECKAUH6eh-12" style="edgeStyle=orthogonalEdgeStyle;rounded=0;orthogonalLoop=1;jettySize=auto;html=1;entryX=0;entryY=0.5;entryDx=0;entryDy=0;" parent="1" source="IrGBv9M6sCpECKAUH6eh-4" target="IrGBv9M6sCpECKAUH6eh-8" edge="1">
          <mxGeometry relative="1" as="geometry" />
        </mxCell>
        <mxCell id="IrGBv9M6sCpECKAUH6eh-4" value="Apartment management" style="ellipse;whiteSpace=wrap;html=1;" parent="1" vertex="1">
          <mxGeometry x="220" y="275" width="140" height="70" as="geometry" />
        </mxCell>
        <mxCell id="IrGBv9M6sCpECKAUH6eh-7" value="Call phone or zalo" style="ellipse;whiteSpace=wrap;html=1;" parent="1" vertex="1">
          <mxGeometry x="430" y="210" width="100" height="70" as="geometry" />
        </mxCell>
        <mxCell id="IrGBv9M6sCpECKAUH6eh-8" value="Search and refresh" style="ellipse;whiteSpace=wrap;html=1;" parent="1" vertex="1">
          <mxGeometry x="430" y="345" width="100" height="70" as="geometry" />
        </mxCell>
        <mxCell id="nARi_2VkK2IOHc93lKq7-7" style="edgeStyle=orthogonalEdgeStyle;rounded=0;orthogonalLoop=1;jettySize=auto;html=1;entryX=1;entryY=0.5;entryDx=0;entryDy=0;" parent="1" source="IrGBv9M6sCpECKAUH6eh-14" target="nARi_2VkK2IOHc93lKq7-1" edge="1">
          <mxGeometry relative="1" as="geometry" />
        </mxCell>
        <mxCell id="IrGBv9M6sCpECKAUH6eh-14" value="Feedback management" style="ellipse;whiteSpace=wrap;html=1;" parent="1" vertex="1">
          <mxGeometry x="-140" y="275" width="140" height="70" as="geometry" />
        </mxCell>
        <mxCell id="LqxswMkN4Dp_3m4Qju0g-7" value="" style="edgeStyle=orthogonalEdgeStyle;rounded=0;orthogonalLoop=1;jettySize=auto;html=1;" edge="1" parent="1" source="IrGBv9M6sCpECKAUH6eh-15" target="LqxswMkN4Dp_3m4Qju0g-6">
          <mxGeometry relative="1" as="geometry" />
        </mxCell>
        <mxCell id="IrGBv9M6sCpECKAUH6eh-15" value="View visitor" style="ellipse;whiteSpace=wrap;html=1;" parent="1" vertex="1">
          <mxGeometry x="220" y="450" width="140" height="70" as="geometry" />
        </mxCell>
        <mxCell id="LqxswMkN4Dp_3m4Qju0g-2" value="" style="edgeStyle=orthogonalEdgeStyle;rounded=0;orthogonalLoop=1;jettySize=auto;html=1;" edge="1" parent="1" source="IrGBv9M6sCpECKAUH6eh-21" target="LqxswMkN4Dp_3m4Qju0g-1">
          <mxGeometry relative="1" as="geometry" />
        </mxCell>
        <mxCell id="LqxswMkN4Dp_3m4Qju0g-4" style="edgeStyle=orthogonalEdgeStyle;rounded=0;orthogonalLoop=1;jettySize=auto;html=1;" edge="1" parent="1" source="IrGBv9M6sCpECKAUH6eh-21" target="LqxswMkN4Dp_3m4Qju0g-3">
          <mxGeometry relative="1" as="geometry" />
        </mxCell>
        <mxCell id="IrGBv9M6sCpECKAUH6eh-21" value="Authentication" style="ellipse;whiteSpace=wrap;html=1;" parent="1" vertex="1">
          <mxGeometry x="90" y="100" width="140" height="70" as="geometry" />
        </mxCell>
        <mxCell id="nARi_2VkK2IOHc93lKq7-1" value="Search and refresh" style="ellipse;whiteSpace=wrap;html=1;" parent="1" vertex="1">
          <mxGeometry x="-290" y="275" width="110" height="70" as="geometry" />
        </mxCell>
        <mxCell id="LqxswMkN4Dp_3m4Qju0g-10" value="" style="edgeStyle=orthogonalEdgeStyle;rounded=0;orthogonalLoop=1;jettySize=auto;html=1;" edge="1" parent="1" source="wpN72CYwRbaIJRPYHv_L-1" target="LqxswMkN4Dp_3m4Qju0g-9">
          <mxGeometry relative="1" as="geometry" />
        </mxCell>
        <mxCell id="wpN72CYwRbaIJRPYHv_L-1" value="Statistical" style="ellipse;whiteSpace=wrap;html=1;" parent="1" vertex="1">
          <mxGeometry x="-140" y="380" width="140" height="70" as="geometry" />
        </mxCell>
        <mxCell id="LqxswMkN4Dp_3m4Qju0g-1" value="Login" style="ellipse;whiteSpace=wrap;html=1;" vertex="1" parent="1">
          <mxGeometry x="270" y="50" width="140" height="70" as="geometry" />
        </mxCell>
        <mxCell id="LqxswMkN4Dp_3m4Qju0g-3" value="Pin code" style="ellipse;whiteSpace=wrap;html=1;" vertex="1" parent="1">
          <mxGeometry x="270" y="150" width="140" height="70" as="geometry" />
        </mxCell>
        <mxCell id="LqxswMkN4Dp_3m4Qju0g-6" value="Search and refresh" style="ellipse;whiteSpace=wrap;html=1;" vertex="1" parent="1">
          <mxGeometry x="440" y="450" width="140" height="70" as="geometry" />
        </mxCell>
        <mxCell id="LqxswMkN4Dp_3m4Qju0g-9" value="View charts" style="ellipse;whiteSpace=wrap;html=1;" vertex="1" parent="1">
          <mxGeometry x="-290" y="380" width="120" height="70" as="geometry" />
        </mxCell>
      </root>
    </mxGraphModel>
  </diagram>
  <diagram id="XDQqlvuORZwwQbv7KWbK" name="Page-2">
    <mxGraphModel dx="1900" dy="549" grid="1" gridSize="10" guides="1" tooltips="1" connect="1" arrows="1" fold="1" page="1" pageScale="1" pageWidth="850" pageHeight="1100" math="0" shadow="0">
      <root>
        <mxCell id="0" />
        <mxCell id="1" parent="0" />
        <mxCell id="jtP8_9GGCP10e2GVQpZQ-1" style="edgeStyle=orthogonalEdgeStyle;rounded=0;orthogonalLoop=1;jettySize=auto;html=1;" parent="1" source="jtP8_9GGCP10e2GVQpZQ-5" target="jtP8_9GGCP10e2GVQpZQ-10" edge="1">
          <mxGeometry relative="1" as="geometry" />
        </mxCell>
        <mxCell id="jtP8_9GGCP10e2GVQpZQ-2" style="edgeStyle=orthogonalEdgeStyle;rounded=0;orthogonalLoop=1;jettySize=auto;html=1;entryX=0;entryY=0.5;entryDx=0;entryDy=0;" parent="1" source="jtP8_9GGCP10e2GVQpZQ-5" target="jtP8_9GGCP10e2GVQpZQ-19" edge="1">
          <mxGeometry relative="1" as="geometry" />
        </mxCell>
        <mxCell id="jtP8_9GGCP10e2GVQpZQ-3" style="edgeStyle=orthogonalEdgeStyle;rounded=0;orthogonalLoop=1;jettySize=auto;html=1;entryX=0;entryY=0.5;entryDx=0;entryDy=0;" parent="1" source="jtP8_9GGCP10e2GVQpZQ-5" edge="1" target="jtP8_9GGCP10e2GVQpZQ-22">
          <mxGeometry relative="1" as="geometry">
            <mxPoint x="160" y="20" as="targetPoint" />
          </mxGeometry>
        </mxCell>
        <mxCell id="jtP8_9GGCP10e2GVQpZQ-4" style="edgeStyle=orthogonalEdgeStyle;rounded=0;orthogonalLoop=1;jettySize=auto;html=1;entryX=1;entryY=0.5;entryDx=0;entryDy=0;" parent="1" source="jtP8_9GGCP10e2GVQpZQ-5" target="jtP8_9GGCP10e2GVQpZQ-17" edge="1">
          <mxGeometry relative="1" as="geometry" />
        </mxCell>
        <mxCell id="jtP8_9GGCP10e2GVQpZQ-35" style="edgeStyle=orthogonalEdgeStyle;rounded=0;orthogonalLoop=1;jettySize=auto;html=1;entryX=1;entryY=0.5;entryDx=0;entryDy=0;" parent="1" source="jtP8_9GGCP10e2GVQpZQ-5" target="jtP8_9GGCP10e2GVQpZQ-34" edge="1">
          <mxGeometry relative="1" as="geometry" />
        </mxCell>
        <mxCell id="pn_q6MUZyDBUJ8jzqjnc-2" style="edgeStyle=orthogonalEdgeStyle;rounded=0;orthogonalLoop=1;jettySize=auto;html=1;entryX=1;entryY=0.5;entryDx=0;entryDy=0;" parent="1" source="jtP8_9GGCP10e2GVQpZQ-5" target="pn_q6MUZyDBUJ8jzqjnc-1" edge="1">
          <mxGeometry relative="1" as="geometry" />
        </mxCell>
        <mxCell id="jtP8_9GGCP10e2GVQpZQ-5" value="Admin" style="shape=umlActor;html=1;verticalLabelPosition=bottom;verticalAlign=top;align=center;fontSize=14;" parent="1" vertex="1">
          <mxGeometry x="70" y="280" width="30" height="60" as="geometry" />
        </mxCell>
        <mxCell id="UEf4-m8Gigf21SydMZe_-4" style="edgeStyle=orthogonalEdgeStyle;rounded=0;orthogonalLoop=1;jettySize=auto;html=1;entryX=0;entryY=0.5;entryDx=0;entryDy=0;" edge="1" parent="1" source="jtP8_9GGCP10e2GVQpZQ-10" target="UEf4-m8Gigf21SydMZe_-3">
          <mxGeometry relative="1" as="geometry" />
        </mxCell>
        <mxCell id="UEf4-m8Gigf21SydMZe_-5" style="edgeStyle=orthogonalEdgeStyle;rounded=0;orthogonalLoop=1;jettySize=auto;html=1;entryX=0;entryY=0.5;entryDx=0;entryDy=0;" edge="1" parent="1" source="jtP8_9GGCP10e2GVQpZQ-10" target="UEf4-m8Gigf21SydMZe_-2">
          <mxGeometry relative="1" as="geometry" />
        </mxCell>
        <mxCell id="jtP8_9GGCP10e2GVQpZQ-10" value="Manage Apartment" style="ellipse;whiteSpace=wrap;html=1;" parent="1" vertex="1">
          <mxGeometry x="220" y="275" width="140" height="70" as="geometry" />
        </mxCell>
        <mxCell id="jtP8_9GGCP10e2GVQpZQ-16" style="edgeStyle=orthogonalEdgeStyle;rounded=0;orthogonalLoop=1;jettySize=auto;html=1;entryX=1;entryY=0.5;entryDx=0;entryDy=0;" parent="1" source="jtP8_9GGCP10e2GVQpZQ-17" target="jtP8_9GGCP10e2GVQpZQ-32" edge="1">
          <mxGeometry relative="1" as="geometry" />
        </mxCell>
        <mxCell id="jtP8_9GGCP10e2GVQpZQ-17" value="Feedback management" style="ellipse;whiteSpace=wrap;html=1;" parent="1" vertex="1">
          <mxGeometry x="-110" y="100" width="140" height="70" as="geometry" />
        </mxCell>
        <mxCell id="UEf4-m8Gigf21SydMZe_-8" style="edgeStyle=orthogonalEdgeStyle;rounded=0;orthogonalLoop=1;jettySize=auto;html=1;" edge="1" parent="1" source="jtP8_9GGCP10e2GVQpZQ-19" target="UEf4-m8Gigf21SydMZe_-7">
          <mxGeometry relative="1" as="geometry" />
        </mxCell>
        <mxCell id="jtP8_9GGCP10e2GVQpZQ-19" value="View visitor" style="ellipse;whiteSpace=wrap;html=1;" parent="1" vertex="1">
          <mxGeometry x="220" y="450" width="140" height="70" as="geometry" />
        </mxCell>
        <mxCell id="UEf4-m8Gigf21SydMZe_-9" style="edgeStyle=orthogonalEdgeStyle;rounded=0;orthogonalLoop=1;jettySize=auto;html=1;entryX=0;entryY=0.5;entryDx=0;entryDy=0;" edge="1" parent="1" source="jtP8_9GGCP10e2GVQpZQ-22" target="UEf4-m8Gigf21SydMZe_-1">
          <mxGeometry relative="1" as="geometry" />
        </mxCell>
        <mxCell id="jtP8_9GGCP10e2GVQpZQ-22" value="Authentication" style="ellipse;whiteSpace=wrap;html=1;" parent="1" vertex="1">
          <mxGeometry x="220" y="100" width="140" height="70" as="geometry" />
        </mxCell>
        <mxCell id="jtP8_9GGCP10e2GVQpZQ-32" value="Search and refresh" style="ellipse;whiteSpace=wrap;html=1;" parent="1" vertex="1">
          <mxGeometry x="-270" y="100" width="120" height="70" as="geometry" />
        </mxCell>
        <mxCell id="jtP8_9GGCP10e2GVQpZQ-40" style="edgeStyle=orthogonalEdgeStyle;rounded=0;orthogonalLoop=1;jettySize=auto;html=1;" parent="1" source="jtP8_9GGCP10e2GVQpZQ-34" target="jtP8_9GGCP10e2GVQpZQ-37" edge="1">
          <mxGeometry relative="1" as="geometry" />
        </mxCell>
        <mxCell id="jtP8_9GGCP10e2GVQpZQ-34" value="Manage Account" style="ellipse;whiteSpace=wrap;html=1;" parent="1" vertex="1">
          <mxGeometry x="-110" y="275" width="140" height="70" as="geometry" />
        </mxCell>
        <mxCell id="jtP8_9GGCP10e2GVQpZQ-37" value="Add,edit,delete" style="ellipse;whiteSpace=wrap;html=1;" parent="1" vertex="1">
          <mxGeometry x="-260" y="275" width="110" height="70" as="geometry" />
        </mxCell>
        <mxCell id="hFFsqKBdRVJAni2JcRwk-2" style="edgeStyle=orthogonalEdgeStyle;rounded=0;orthogonalLoop=1;jettySize=auto;html=1;entryX=1;entryY=0.5;entryDx=0;entryDy=0;" edge="1" parent="1" source="pn_q6MUZyDBUJ8jzqjnc-1" target="hFFsqKBdRVJAni2JcRwk-1">
          <mxGeometry relative="1" as="geometry" />
        </mxCell>
        <mxCell id="pn_q6MUZyDBUJ8jzqjnc-1" value="Statistical" style="ellipse;whiteSpace=wrap;html=1;" parent="1" vertex="1">
          <mxGeometry x="-110" y="440" width="140" height="70" as="geometry" />
        </mxCell>
        <mxCell id="UEf4-m8Gigf21SydMZe_-1" value="Login" style="ellipse;whiteSpace=wrap;html=1;" vertex="1" parent="1">
          <mxGeometry x="400" y="100" width="140" height="70" as="geometry" />
        </mxCell>
        <mxCell id="UEf4-m8Gigf21SydMZe_-2" value="Add,edit,delete" style="ellipse;whiteSpace=wrap;html=1;" vertex="1" parent="1">
          <mxGeometry x="400" y="330" width="110" height="70" as="geometry" />
        </mxCell>
        <mxCell id="UEf4-m8Gigf21SydMZe_-3" value="Search and refresh" style="ellipse;whiteSpace=wrap;html=1;" vertex="1" parent="1">
          <mxGeometry x="400" y="205" width="120" height="70" as="geometry" />
        </mxCell>
        <mxCell id="UEf4-m8Gigf21SydMZe_-7" value="Search and refresh" style="ellipse;whiteSpace=wrap;html=1;" vertex="1" parent="1">
          <mxGeometry x="410" y="450" width="120" height="70" as="geometry" />
        </mxCell>
        <mxCell id="hFFsqKBdRVJAni2JcRwk-1" value="View charts" style="ellipse;whiteSpace=wrap;html=1;" vertex="1" parent="1">
          <mxGeometry x="-265" y="440" width="120" height="70" as="geometry" />
        </mxCell>
      </root>
    </mxGraphModel>
  </diagram>
  <diagram id="NwodY0PyBqSFy7PfCo75" name="Page-3">
    <mxGraphModel dx="200" dy="549" grid="1" gridSize="10" guides="1" tooltips="1" connect="1" arrows="1" fold="1" page="1" pageScale="1" pageWidth="850" pageHeight="1100" math="0" shadow="0">
      <root>
        <mxCell id="0" />
        <mxCell id="1" parent="0" />
        <mxCell id="VB65ANxgvGbxcMB3LTrf-1" style="edgeStyle=orthogonalEdgeStyle;rounded=0;orthogonalLoop=1;jettySize=auto;html=1;entryX=0;entryY=0.5;entryDx=0;entryDy=0;" parent="1" source="mTjCIpZ6aeCD4K6PkXbw-1" target="mTjCIpZ6aeCD4K6PkXbw-2" edge="1">
          <mxGeometry relative="1" as="geometry">
            <mxPoint x="1120" y="1160" as="targetPoint" />
          </mxGeometry>
        </mxCell>
        <mxCell id="VB65ANxgvGbxcMB3LTrf-2" style="edgeStyle=orthogonalEdgeStyle;rounded=0;orthogonalLoop=1;jettySize=auto;html=1;" parent="1" source="mTjCIpZ6aeCD4K6PkXbw-1" target="mTjCIpZ6aeCD4K6PkXbw-3" edge="1">
          <mxGeometry relative="1" as="geometry" />
        </mxCell>
        <mxCell id="VB65ANxgvGbxcMB3LTrf-3" style="edgeStyle=orthogonalEdgeStyle;rounded=0;orthogonalLoop=1;jettySize=auto;html=1;entryX=0;entryY=0.5;entryDx=0;entryDy=0;" parent="1" source="mTjCIpZ6aeCD4K6PkXbw-1" target="mTjCIpZ6aeCD4K6PkXbw-4" edge="1">
          <mxGeometry relative="1" as="geometry" />
        </mxCell>
        <mxCell id="mTjCIpZ6aeCD4K6PkXbw-1" value="Visitor" style="shape=umlActor;html=1;verticalLabelPosition=bottom;verticalAlign=top;align=center;fontSize=14;" parent="1" vertex="1">
          <mxGeometry x="1010" y="1210" width="30" height="60" as="geometry" />
        </mxCell>
        <mxCell id="mTjCIpZ6aeCD4K6PkXbw-2" value="Fill register form" style="ellipse;whiteSpace=wrap;html=1;" parent="1" vertex="1">
          <mxGeometry x="1160" y="1050" width="140" height="70" as="geometry" />
        </mxCell>
        <mxCell id="mTjCIpZ6aeCD4K6PkXbw-3" value="Feddback" style="ellipse;whiteSpace=wrap;html=1;" parent="1" vertex="1">
          <mxGeometry x="1160" y="1205" width="140" height="70" as="geometry" />
        </mxCell>
        <mxCell id="mTjCIpZ6aeCD4K6PkXbw-4" value="Rating" style="ellipse;whiteSpace=wrap;html=1;" parent="1" vertex="1">
          <mxGeometry x="1160" y="1360" width="140" height="70" as="geometry" />
        </mxCell>
      </root>
    </mxGraphModel>
  </diagram>
</mxfile>
